<svg width="24" height="24" viewBox="0 0 24 24" fill="none" xmlns="http://www.w3.org/2000/svg">
<path d="M15 12C15 13.6568 13.6569 15 12 15C10.3431 15 9 13.6568 9 12C9 10.3431 10.3431 8.99999 12 8.99999C13.6569 8.99999 15 10.3431 15 12Z" stroke="black" stroke-opacity="0.2" stroke-width="2" stroke-linejoin="round"/>
<path d="M10.4704 4.31945C11.0721 3.01368 12.9279 3.01368 13.5296 4.31945L13.7477 4.79284C14.1156 5.59126 15.0357 5.97239 15.8604 5.66796L16.3494 5.48747C17.6982 4.9896 19.0104 6.30181 18.5125 7.65058L18.332 8.13956C18.0276 8.96427 18.4087 9.8844 19.2072 10.2523L19.6805 10.4704C20.9863 11.0721 20.9863 12.9279 19.6805 13.5295L19.2072 13.7477C18.4087 14.1156 18.0276 15.0357 18.332 15.8604L18.5125 16.3494C19.0104 17.6982 17.6982 19.0104 16.3494 18.5125L15.8604 18.332C15.0357 18.0276 14.1156 18.4087 13.7477 19.2071L13.5296 19.6805C12.9279 20.9863 11.0721 20.9863 10.4705 19.6805L10.2523 19.2071C9.88442 18.4087 8.96429 18.0276 8.13957 18.332L7.6506 18.5125C6.30183 19.0104 4.98961 17.6982 5.48748 16.3494L5.66798 15.8604C5.97241 15.0357 5.59128 14.1156 4.79285 13.7477L4.31946 13.5295C3.01369 12.9279 3.01369 11.0721 4.31946 10.4704L4.79285 10.2523C5.59127 9.88441 5.97241 8.96427 5.66798 8.13956L5.48749 7.65058C4.98962 6.30181 6.30183 4.9896 7.6506 5.48747L8.13957 5.66796C8.96429 5.97239 9.88442 5.59126 10.2523 4.79284L10.4704 4.31945Z" stroke="black" stroke-opacity="0.2" stroke-width="2" stroke-linejoin="round"/>
</svg>
